<?xml version="1.0" standalone="no"?>
<!DOCTYPE svg PUBLIC "-//W3C//DTD SVG 20010904//EN"
 "http://www.w3.org/TR/2001/REC-SVG-20010904/DTD/svg10.dtd">
<svg version="1.0" xmlns="http://www.w3.org/2000/svg"
 width="169.000000pt" height="162.000000pt" viewBox="0 0 169.000000 162.000000"
 preserveAspectRatio="xMidYMid meet">

<g transform="translate(0.000000,162.000000) scale(0.100000,-0.100000)"
fill="#000000" stroke="none">
<path d="M633 1014 c-3 -8 -1 -20 5 -26 7 -7 7 -16 -1 -29 -9 -14 -9 -21 0
-30 9 -9 9 -16 0 -30 -9 -14 -9 -21 0 -30 9 -9 9 -18 2 -32 -8 -13 -8 -22 0
-30 7 -7 7 -16 0 -30 -8 -13 -8 -22 0 -30 7 -7 7 -16 0 -29 -7 -14 -7 -23 2
-34 9 -11 9 -17 -1 -30 -11 -12 -10 -18 3 -31 13 -13 19 -14 31 -3 13 10 19
10 30 1 11 -9 20 -9 34 -2 13 7 22 7 29 0 8 -8 17 -8 30 0 14 7 23 7 30 0 8
-8 17 -8 30 0 14 7 23 7 31 -1 15 -15 42 -2 42 21 0 22 -21 33 -40 21 -8 -5
-21 -5 -30 0 -9 5 -22 5 -30 0 -8 -5 -22 -4 -33 1 -13 7 -23 7 -33 -2 -11 -9
-17 -9 -29 1 -12 10 -18 10 -30 0 -22 -19 -44 3 -25 25 10 12 10 18 0 30 -10
12 -10 18 -1 29 9 11 9 20 2 34 -13 25 -5 32 29 26 15 -4 31 -1 34 5 5 8 12 6
23 -4 13 -14 17 -14 32 -1 14 12 18 12 29 0 11 -12 17 -12 28 -3 8 6 14 18 14
26 0 19 -27 28 -43 14 -10 -8 -17 -7 -25 1 -10 10 -17 10 -32 0 -12 -7 -21 -8
-25 -2 -9 14 -42 12 -48 -2 -4 -10 -8 -10 -15 1 -7 10 -6 20 1 32 9 14 9 21 0
30 -9 9 -9 16 0 29 8 14 8 22 -1 33 -10 11 -9 17 3 27 10 9 15 9 15 1 0 -15
33 -14 48 1 9 9 12 9 12 0 0 -7 8 -12 18 -12 10 0 23 5 30 12 9 9 12 9 12 0 0
-14 36 -16 45 -2 4 6 13 5 25 -2 24 -15 46 2 37 26 -7 19 -47 22 -47 4 0 -9
-3 -9 -12 0 -16 16 -48 16 -48 0 0 -9 -3 -9 -12 0 -7 7 -20 12 -30 12 -10 0
-18 -5 -18 -12 0 -9 -3 -9 -12 0 -7 7 -20 12 -30 12 -10 0 -18 -5 -18 -12 0
-9 -3 -9 -12 0 -17 17 -48 15 -55 -4z"/>
<path d="M1007 723 c-2 -5 -5 -30 -5 -56 0 -50 18 -71 40 -49 8 8 17 8 30 1
26 -14 51 6 39 30 -5 9 -7 28 -4 43 6 32 -18 48 -41 29 -10 -8 -16 -9 -21 -1
-7 12 -32 14 -38 3z m73 -53 c0 -12 -29 -20 -35 -10 -9 15 4 30 20 23 8 -3 15
-9 15 -13z"/>
</g>
</svg>
