<?xml version="1.0" encoding="utf-8"?>
<!-- Svg Vector Icons : http://www.onlinewebfonts.com/icon -->
<!DOCTYPE svg PUBLIC "-//W3C//DTD SVG 1.1//EN" "http://www.w3.org/Graphics/SVG/1.1/DTD/svg11.dtd">
<svg version="1.1" xmlns="http://www.w3.org/2000/svg" xmlns:xlink="http://www.w3.org/1999/xlink" x="0px" y="0px" viewBox="0 0 256 256" enable-background="new 0 0 256 256" xml:space="preserve">
<metadata> Svg Vector Icons : http://www.onlinewebfonts.com/icon </metadata>
<g><g><path fill="#000000" d="M213.2,128.9c0,28.3,0.1,56.5,0,84.8c-0.1,21.6-10.5,32.1-31.9,32.2c-20.8,0.1-41.5,0.1-62.3,0c-13.6,0-17.1-3.5-17.2-16.7c-0.1-8.5,0-17,0-25.5c0-15.7-0.6-16.4-15.9-16.4c-9.2,0-18.4,0-27.6-0.1c-11.1-0.2-15.2-3.8-15.3-14.5c-0.2-44.3-0.3-88.6,0-132.8c0.1-18.6,10.7-29.2,29.5-29.4c36.8-0.5,73.6-0.4,110.3-0.1c19.7,0.2,30.1,10.9,30.3,30.8C213.4,70.3,213.2,99.6,213.2,128.9z M127.2,144.6c2.7,0,5.5,0.2,8.2,0c15.1-1.5,29.2-13.3,30.8-27c0.4-3.6-1.6-8-6.5-9.5c-5.2-1.1-7.2,1.4-9.1,4.1c-0.8,1.2-1.4,3-2.1,4.6c-4.4,9.5-12.2,13.6-22.2,13.2c-10-0.3-17.5-5-21.1-14.9c-4.6-12.7-4.6-25.5,0.7-37.9c5.4-12.6,19.9-18.6,31.4-12.3c5,2.8,8.9,8.1,12.4,12.9c3.4,4.6,9.4,6,14.2,2.1c2.8-2.3,2.6-7.6,0.7-10c-5.6-7.2-12.1-15.4-20.1-18.7c-17.6-7.3-35.3-5-48.8,9.6C79.8,78,79.6,98.5,87.2,119.2C93.9,137.2,108.1,145.2,127.2,144.6z"/><path fill="#000000" d="M88.9,243c-14.8-14.4-28.9-28.2-44-43c12.7,0,24.8-0.5,36.8,0.4c2.6,0.2,6.7,5.5,6.9,8.7C89.5,220.3,88.9,231.5,88.9,243z"/></g></g>
</svg>