<svg width="44" height="44" viewBox="0 0 44 44" fill="none" xmlns="http://www.w3.org/2000/svg">
<path d="M15.6923 35.8135C28.5226 35.8135 35.5402 25.1838 35.5402 15.9657C35.5402 15.6638 35.5402 15.3632 35.5198 15.064C36.885 14.0765 38.0634 12.8539 39 11.4532C37.727 12.0176 36.3764 12.3876 34.9934 12.5507C36.4497 11.679 37.5396 10.3078 38.0602 8.69242C36.691 9.50503 35.1929 10.0777 33.6307 10.3856C32.579 9.26727 31.188 8.52672 29.6729 8.27859C28.1579 8.03045 26.6033 8.28855 25.2498 9.01294C23.8962 9.73734 22.8191 10.8876 22.1852 12.2859C21.5513 13.6841 21.3959 15.2522 21.743 16.7477C18.9696 16.6086 16.2565 15.8878 13.7797 14.6322C11.303 13.3766 9.11792 11.6142 7.3664 9.45946C6.47437 10.9951 6.20115 12.813 6.60239 14.5431C7.00363 16.2731 8.04915 17.7851 9.52608 18.7714C8.41591 18.7388 7.32992 18.4394 6.36 17.8983V17.9867C6.36044 19.5972 6.91796 21.158 7.93798 22.4043C8.95801 23.6507 10.3778 24.5058 11.9564 24.8247C10.9294 25.1049 9.85191 25.1458 8.80664 24.9444C9.25257 26.3304 10.1204 27.5424 11.2889 28.4109C12.4574 29.2795 13.8681 29.7612 15.3238 29.7887C13.8775 30.9256 12.2212 31.7661 10.4497 32.2622C8.67828 32.7584 6.82639 32.9004 5 32.6801C8.1901 34.7272 11.9019 35.8131 15.6923 35.8081" fill="url(#paint0_linear)"/>
<defs>
<linearGradient id="paint0_linear" x1="-0.612048" y1="13.1916" x2="39.2938" y2="17.3706" gradientUnits="userSpaceOnUse">
<stop stop-color="#DFDFDF"/>
<stop offset="0.352685" stop-color="#7E8083"/>
<stop offset="1" stop-color="#191E24"/>
</linearGradient>
</defs>
</svg>
